<svg width="50" height="50" viewBox="0 0 50 50" fill="none" xmlns="http://www.w3.org/2000/svg">
<path d="M25.0005 50C38.8075 50 50.0003 38.8071 50.0003 25C50.0003 11.1929 38.8075 0 25.0005 0C11.1934 0 0.000610352 11.1929 0.000610352 25C0.000610352 38.8071 11.1934 50 25.0005 50Z" fill="#394145"/>
<path d="M37.1735 34.6387C37.1832 34.6126 37.1896 34.5847 37.1896 34.555V30.7507C37.1896 30.63 37.0914 30.5318 36.9707 30.5318H30.9762C30.8559 30.5318 30.7571 30.63 30.7571 30.7507V34.555C30.7571 34.5847 30.7625 34.6126 30.7737 34.6387H37.1735ZM31.1029 30.878H36.8436V34.3191H31.1029V30.878ZM38.0108 35.55C38.0108 35.55 38.0108 35.8235 37.7371 35.8235C37.4639 35.8235 30.4832 35.8235 30.2095 35.8235C29.9357 35.8235 29.9357 35.55 29.9357 35.55H30.7737H37.1734H38.0108Z" fill="white"/>
<path d="M37.1735 18.8613C37.1832 18.8358 37.1896 18.8079 37.1896 18.7788V14.9744C37.1896 14.8538 37.0914 14.7549 36.9707 14.7549H30.9762C30.8559 14.7549 30.7571 14.8538 30.7571 14.9744V18.7788C30.7571 18.8079 30.7625 18.8358 30.7737 18.8613H37.1735ZM31.1029 15.1012H36.8436V18.5423H31.1029V15.1012ZM38.0108 19.7738C38.0108 19.7738 38.0108 20.0467 37.7371 20.0467C37.4639 20.0467 30.4832 20.0467 30.2095 20.0467C29.9357 20.0467 29.9357 19.7738 29.9357 19.7738H30.7737H37.1734H38.0108Z" fill="white"/>
<path d="M37.1735 26.75C37.1832 26.7239 37.1896 26.6965 37.1896 26.6675V22.8626C37.1896 22.7419 37.0914 22.6437 36.9707 22.6437H30.9762C30.8559 22.6437 30.7571 22.7419 30.7571 22.8626V26.6675C30.7571 26.6965 30.7625 26.7239 30.7737 26.75H37.1735ZM31.1029 22.9899H36.8436V26.4304H31.1029V22.9899ZM38.0108 27.6619C38.0108 27.6619 38.0108 27.9348 37.7371 27.9348C37.4639 27.9348 30.4832 27.9348 30.2095 27.9348C29.9357 27.9348 29.9357 27.6619 29.9357 27.6619H30.7737H37.1734H38.0108Z" fill="white"/>
<path d="M24.0785 19.5331V24.6071H22.9053V25.2347H24.0785V30.3081C24.0788 31.2286 24.825 31.9743 25.7454 31.9743H29.7695V31.4062H25.7455C25.1391 31.4055 24.6486 30.9144 24.6479 30.3081V25.2347H28.8676V24.6071H24.6479V19.5331C24.6486 18.9274 25.1391 18.4362 25.7455 18.4362H29.7696V17.8674H25.7455C24.825 17.8674 24.0789 18.6132 24.0785 19.5331Z" fill="#0099CC"/>
<path d="M20.8497 23.3835H20.3438V23.8892H20.8497V23.3835Z" fill="white"/>
<path d="M19.5134 23.3507C19.3564 23.3507 19.2302 23.4781 19.2302 23.6363C19.2302 23.7934 19.3564 23.9194 19.5134 23.9194C19.6717 23.9194 19.7987 23.7934 19.7987 23.6363C19.7987 23.4781 19.6717 23.3507 19.5134 23.3507Z" fill="white"/>
<path d="M18.3907 21.0763H13.8624C13.7612 21.0763 13.6772 21.1612 13.6772 21.2673C13.6772 21.3716 13.7612 21.4565 13.8624 21.4565H18.3907C18.4931 21.4565 18.5766 21.3716 18.5766 21.2673C18.5766 21.1612 18.4932 21.0763 18.3907 21.0763Z" fill="white"/>
<path d="M18.3907 23.4459H13.8624C13.7612 23.4459 13.6772 23.5308 13.6772 23.6363C13.6772 23.7412 13.7612 23.8267 13.8624 23.8267H18.3907C18.4931 23.8267 18.5766 23.7412 18.5766 23.6363C18.5766 23.5308 18.4932 23.4459 18.3907 23.4459Z" fill="white"/>
<path d="M20.8497 28.1221H20.3438V28.6284H20.8497V28.1221Z" fill="white"/>
<path d="M19.5134 20.9811C19.3564 20.9811 19.2302 21.109 19.2302 21.2673C19.2302 21.4238 19.3564 21.5505 19.5134 21.5505C19.6717 21.5505 19.7987 21.4238 19.7987 21.2673C19.7987 21.109 19.6717 20.9811 19.5134 20.9811Z" fill="white"/>
<path d="M18.3907 25.8168H13.8624C13.7612 25.8168 13.6772 25.901 13.6772 26.0059C13.6772 26.1108 13.7612 26.1963 13.8624 26.1963H18.3907C18.4931 26.1963 18.5766 26.1108 18.5766 26.0059C18.5766 25.901 18.4932 25.8168 18.3907 25.8168Z" fill="white"/>
<path d="M18.3907 28.1858H13.8624C13.7612 28.1858 13.6772 28.2701 13.6772 28.3756C13.6772 28.4799 13.7612 28.5654 13.8624 28.5654H18.3907C18.4931 28.5654 18.5766 28.4799 18.5766 28.3756C18.5766 28.2701 18.4932 28.1858 18.3907 28.1858Z" fill="white"/>
<path d="M20.8497 25.7525H20.3438V26.2594H20.8497V25.7525Z" fill="white"/>
<path d="M19.5134 25.721C19.3564 25.721 19.2302 25.8483 19.2302 26.0059C19.2302 26.163 19.3564 26.2898 19.5134 26.2898C19.6717 26.2898 19.7987 26.163 19.7987 26.0059C19.7987 25.8483 19.6717 25.721 19.5134 25.721Z" fill="white"/>
<path d="M20.8497 16.2745H20.3438V16.7802H20.8497V16.2745Z" fill="white"/>
<path d="M19.5134 16.2424C19.3564 16.2424 19.2302 16.3697 19.2302 16.528C19.2302 16.6838 19.3564 16.8105 19.5134 16.8105C19.6717 16.8105 19.7987 16.6838 19.7987 16.528C19.7987 16.3697 19.6717 16.2424 19.5134 16.2424Z" fill="white"/>
<path d="M18.3907 16.3376H13.8624C13.7612 16.3376 13.6772 16.4225 13.6772 16.528C13.6772 16.6317 13.7612 16.7178 13.8624 16.7178H18.3907C18.4931 16.7178 18.5766 16.6316 18.5766 16.528C18.5766 16.4225 18.4932 16.3376 18.3907 16.3376Z" fill="white"/>
<path d="M19.5134 28.09C19.3564 28.09 19.2302 28.2173 19.2302 28.3756C19.2302 28.5326 19.3564 28.6594 19.5134 28.6594C19.6717 28.6594 19.7987 28.5326 19.7987 28.3756C19.7987 28.2173 19.6717 28.09 19.5134 28.09Z" fill="white"/>
<path d="M11.9891 14.134V35.8659H22.4009V14.134H11.9891ZM17.1944 34.2821C16.5628 34.2821 16.049 33.7685 16.049 33.1367C16.049 32.5037 16.5628 31.9895 17.1944 31.9895C17.8262 31.9895 18.3407 32.5037 18.3407 33.1367C18.3407 33.7686 17.8262 34.2821 17.1944 34.2821ZM20.6988 29.2524H13.6903C13.2264 29.2524 12.8486 28.8643 12.8486 28.3871C12.8486 27.9081 13.2264 27.52 13.6903 27.52H20.6988C21.1629 27.52 21.5414 27.9081 21.5414 28.3871C21.5414 28.8644 21.1629 29.2524 20.6988 29.2524ZM20.6988 26.8833H13.6903C13.2264 26.8833 12.8486 26.4947 12.8486 26.0175C12.8486 25.5385 13.2264 25.1504 13.6903 25.1504H20.6988C21.1629 25.1504 21.5414 25.5385 21.5414 26.0175C21.5414 26.4947 21.1629 26.8833 20.6988 26.8833ZM20.6988 24.5137H13.6903C13.2264 24.5137 12.8486 24.1239 12.8486 23.6479C12.8486 23.1688 13.2264 22.7801 13.6903 22.7801H20.6988C21.1629 22.7801 21.5414 23.1688 21.5414 23.6479C21.5414 24.1238 21.1629 24.5137 20.6988 24.5137ZM20.6988 22.144H13.6903C13.2264 22.144 12.8486 21.7548 12.8486 21.2788C12.8486 20.7991 13.2264 20.4105 13.6903 20.4105H20.6988C21.1629 20.4105 21.5414 20.7992 21.5414 21.2788C21.5414 21.7548 21.1629 22.144 20.6988 22.144ZM20.6988 19.7744H13.6903C13.2264 19.7744 12.8486 19.3852 12.8486 18.9086C12.8486 18.4296 13.2264 18.0408 13.6903 18.0408H20.6988C21.1629 18.0408 21.5414 18.4296 21.5414 18.9086C21.5414 19.3852 21.1629 19.7744 20.6988 19.7744ZM20.6988 17.4042H13.6903C13.2264 17.4042 12.8486 17.0155 12.8486 16.5383C12.8486 16.0593 13.2264 15.6712 13.6903 15.6712H20.6988C21.1629 15.6712 21.5414 16.0593 21.5414 16.5383C21.5414 17.0155 21.1629 17.4042 20.6988 17.4042Z" fill="white"/>
<path d="M20.8497 18.6442H20.3438V19.1505H20.8497V18.6442Z" fill="white"/>
<path d="M19.5134 18.612C19.3564 18.612 19.2302 18.7393 19.2302 18.8976C19.2302 19.0541 19.3564 19.1808 19.5134 19.1808C19.6717 19.1808 19.7987 19.0541 19.7987 18.8976C19.7987 18.7394 19.6717 18.612 19.5134 18.612Z" fill="white"/>
<path d="M18.3907 18.7072H13.8624C13.7612 18.7072 13.6772 18.7921 13.6772 18.8976C13.6772 19.0019 13.7612 19.0874 13.8624 19.0874H18.3907C18.4931 19.0874 18.5766 19.0019 18.5766 18.8976C18.5766 18.7921 18.4932 18.7072 18.3907 18.7072Z" fill="white"/>
<path d="M20.8497 21.0138H20.3438V21.5201H20.8497V21.0138Z" fill="white"/>
</svg>
