<svg width="16" height="12" viewBox="0 0 16 12" fill="none" xmlns="http://www.w3.org/2000/svg">
<path d="M14.4 0H1.6C0.72 0 0 0.675 0 1.5V10.5C0 11.325 0.72 12 1.6 12H14.4C15.28 12 16 11.325 16 10.5V1.5C16 0.675 15.28 0 14.4 0ZM14.08 3.1875L8.848 6.255C8.328 6.5625 7.672 6.5625 7.152 6.255L1.92 3.1875C1.83978 3.14528 1.76954 3.08825 1.71351 3.01984C1.65749 2.95143 1.61685 2.87308 1.59406 2.78953C1.57127 2.70597 1.5668 2.61895 1.58093 2.53373C1.59505 2.44851 1.62747 2.36686 1.67623 2.29373C1.72498 2.22059 1.78906 2.15749 1.86458 2.10825C1.9401 2.059 2.0255 2.02463 2.1156 2.00722C2.2057 1.98981 2.29863 1.98973 2.38876 2.00696C2.4789 2.0242 2.56437 2.0584 2.64 2.1075L8 5.25L13.36 2.1075C13.4356 2.0584 13.5211 2.0242 13.6112 2.00696C13.7014 1.98973 13.7943 1.98981 13.8844 2.00722C13.9745 2.02463 14.0599 2.059 14.1354 2.10825C14.2109 2.15749 14.275 2.22059 14.3238 2.29373C14.3725 2.36686 14.405 2.44851 14.4191 2.53373C14.4332 2.61895 14.4287 2.70597 14.4059 2.78953C14.3832 2.87308 14.3425 2.95143 14.2865 3.01984C14.2305 3.08825 14.1602 3.14528 14.08 3.1875Z" fill="white"/>
</svg>
