<svg width="15" height="16" viewBox="0 0 15 16" fill="none" xmlns="http://www.w3.org/2000/svg">
<path d="M14.125 15.5C14.2639 15.5 14.4097 15.4967 14.5625 15.49C14.7153 15.4828 14.8611 15.4722 15 15.4583V10.5833L10.8333 9.75L8.41667 12.1667C7.36111 11.5278 6.39222 10.7708 5.51 9.89583C4.62833 9.02083 3.89583 8.08333 3.3125 7.08333L5.6875 4.6875L4.91667 0.5H0.041666C0.0138884 0.638889 0 0.784722 0 0.9375V1.375C0 3.16667 0.399445 4.91306 1.19833 6.61417C1.99667 8.31583 3.05222 9.82639 4.365 11.1458C5.67722 12.4653 7.18389 13.5208 8.885 14.3125C10.5867 15.1042 12.3333 15.5 14.125 15.5Z" fill="white"/>
</svg>
