<svg width="118" height="109" viewBox="0 0 118 109" fill="none" xmlns="http://www.w3.org/2000/svg">
<path d="M79.0391 43.3789L50.9141 24.6289C50.5616 24.3941 50.1521 24.2593 49.7291 24.2387C49.3061 24.218 48.8854 24.3124 48.5117 24.5117C48.1372 24.7065 47.824 25.0013 47.6068 25.3633C47.3896 25.7253 47.2769 26.1404 47.2812 26.5625V64.0625C47.2769 64.4846 47.3896 64.8997 47.6068 65.2617C47.824 65.6237 48.1372 65.9185 48.5117 66.1133C48.8567 66.2917 49.2369 66.3918 49.625 66.4062C50.0881 66.4148 50.5411 66.2706 50.9141 65.9961L79.0391 47.2461C79.3659 47.0403 79.6352 46.7549 79.8218 46.4168C80.0085 46.0787 80.1064 45.6987 80.1064 45.3125C80.1064 44.9263 80.0085 44.5463 79.8218 44.2082C79.6352 43.8701 79.3659 43.5847 79.0391 43.3789ZM51.9688 59.668V30.957L73.5312 45.3125L51.9688 59.668ZM105.875 0.78125H12.125C9.02174 0.796651 6.04997 2.03625 3.85561 4.23061C1.66125 6.42497 0.421651 9.39674 0.40625 12.5V78.125C0.421651 81.2283 1.66125 84.2 3.85561 86.3944C6.04997 88.5888 9.02174 89.8283 12.125 89.8438H105.875C108.978 89.8283 111.95 88.5888 114.144 86.3944C116.339 84.2 117.578 81.2283 117.594 78.125V12.5C117.578 9.39674 116.339 6.42497 114.144 4.23061C111.95 2.03625 108.978 0.796651 105.875 0.78125ZM112.906 78.125C112.906 79.9898 112.165 81.7782 110.847 83.0968C109.528 84.4155 107.74 85.1562 105.875 85.1562H12.125C10.2602 85.1562 8.47177 84.4155 7.15315 83.0968C5.83454 81.7782 5.09375 79.9898 5.09375 78.125V12.5C5.09375 10.6352 5.83454 8.84677 7.15315 7.52815C8.47177 6.20954 10.2602 5.46875 12.125 5.46875H105.875C107.74 5.46875 109.528 6.20954 110.847 7.52815C112.165 8.84677 112.906 10.6352 112.906 12.5V78.125ZM80.0938 106.25C80.0938 106.872 79.8468 107.468 79.4073 107.907C78.9677 108.347 78.3716 108.594 77.75 108.594H40.25C39.6284 108.594 39.0323 108.347 38.5927 107.907C38.1532 107.468 37.9062 106.872 37.9062 106.25C37.9062 105.628 38.1532 105.032 38.5927 104.593C39.0323 104.153 39.6284 103.906 40.25 103.906H77.75C78.3716 103.906 78.9677 104.153 79.4073 104.593C79.8468 105.032 80.0938 105.628 80.0938 106.25Z" fill="white"/>
</svg>
